<svg width="391" height="335" viewBox="0 0 391 335" fill="none" xmlns="http://www.w3.org/2000/svg">
<path d="M198.637 50C194.496 50 190.405 50.7342 186.519 52.1502L43.0871 105.277C38.2293 107.113 35.0079 111.833 35.0079 117.13C35.0079 122.427 38.2293 127.147 43.0871 128.982L72.6938 139.943C64.3078 153.474 59.5523 169.47 59.5523 186.305V201.042C59.5523 215.936 54.0298 231.303 48.1494 243.417C44.8256 250.235 41.0417 256.948 36.6442 263.137C35.0079 265.392 34.5477 268.329 35.4681 271.004C36.3885 273.678 38.5361 275.671 41.1951 276.353L73.921 284.744C76.0687 285.321 78.3697 284.902 80.2617 283.695C82.1536 282.489 83.4831 280.496 83.8922 278.241C88.2898 255.794 86.091 235.656 82.8184 221.233C81.1821 213.786 78.9833 206.181 75.9153 199.206V186.305C75.9153 170.466 81.131 155.519 90.1817 143.562C96.778 135.433 105.317 128.877 115.34 124.839L195.621 92.4805C199.814 90.8023 204.569 92.9001 206.205 97.2006C207.842 101.501 205.796 106.378 201.603 108.057L121.322 140.415C114.982 142.985 109.408 146.919 104.857 151.743L186.468 181.952C190.354 183.368 194.444 184.102 198.586 184.102C202.728 184.102 206.819 183.368 210.705 181.952L354.188 128.982C359.046 127.199 362.267 122.427 362.267 117.13C362.267 111.833 359.046 107.113 354.188 105.277L210.756 52.1502C206.87 50.7342 202.779 50 198.637 50ZM100.46 247.193C100.46 265.707 144.435 284.954 198.637 284.954C252.84 284.954 296.815 265.707 296.815 247.193L288.992 170.938L216.279 197.895C210.603 199.993 204.62 201.042 198.637 201.042C192.655 201.042 186.621 199.993 180.996 197.895L108.283 170.938L100.46 247.193Z" fill="white"/>
</svg>
