<svg width="1313" height="335" viewBox="0 0 1313 335" fill="none" xmlns="http://www.w3.org/2000/svg">
<path d="M198.637 50C194.496 50 190.405 50.7342 186.519 52.1502L43.0871 105.277C38.2293 107.113 35.0079 111.833 35.0079 117.13C35.0079 122.427 38.2293 127.147 43.0871 128.982L72.6938 139.943C64.3078 153.474 59.5523 169.47 59.5523 186.305V201.042C59.5523 215.936 54.0298 231.303 48.1494 243.417C44.8256 250.235 41.0417 256.948 36.6442 263.137C35.0079 265.392 34.5477 268.329 35.4681 271.004C36.3885 273.678 38.5361 275.671 41.1951 276.353L73.921 284.744C76.0687 285.321 78.3697 284.902 80.2617 283.695C82.1536 282.489 83.4831 280.496 83.8922 278.241C88.2898 255.794 86.091 235.656 82.8184 221.233C81.1821 213.786 78.9833 206.181 75.9153 199.206V186.305C75.9153 170.466 81.131 155.519 90.1817 143.562C96.778 135.433 105.317 128.877 115.34 124.839L195.621 92.4805C199.814 90.8023 204.569 92.9001 206.205 97.2006C207.842 101.501 205.796 106.378 201.603 108.057L121.322 140.415C114.982 142.985 109.408 146.919 104.857 151.743L186.468 181.952C190.354 183.368 194.444 184.102 198.586 184.102C202.728 184.102 206.819 183.368 210.705 181.952L354.188 128.982C359.046 127.199 362.267 122.427 362.267 117.13C362.267 111.833 359.046 107.113 354.188 105.277L210.756 52.1502C206.87 50.7342 202.779 50 198.637 50ZM100.46 247.193C100.46 265.707 144.435 284.954 198.637 284.954C252.84 284.954 296.815 265.707 296.815 247.193L288.992 170.938L216.279 197.895C210.603 199.993 204.62 201.042 198.637 201.042C192.655 201.042 186.621 199.993 180.996 197.895L108.283 170.938L100.46 247.193Z" fill="url(#paint0_linear_9_93)"/>
<path d="M465.359 157.261C465.086 154.511 463.916 152.375 461.848 150.852C459.78 149.33 456.973 148.568 453.427 148.568C451.018 148.568 448.984 148.909 447.325 149.591C445.666 150.25 444.393 151.17 443.507 152.352C442.643 153.534 442.211 154.875 442.211 156.375C442.166 157.625 442.427 158.716 442.996 159.648C443.586 160.58 444.393 161.386 445.416 162.068C446.439 162.727 447.621 163.307 448.961 163.807C450.302 164.284 451.734 164.693 453.257 165.034L459.53 166.534C462.575 167.216 465.371 168.125 467.916 169.261C470.461 170.398 472.666 171.795 474.53 173.455C476.393 175.114 477.836 177.068 478.859 179.318C479.905 181.568 480.439 184.148 480.461 187.057C480.439 191.33 479.348 195.034 477.189 198.17C475.052 201.284 471.961 203.705 467.916 205.432C463.893 207.136 459.041 207.989 453.359 207.989C447.723 207.989 442.814 207.125 438.632 205.398C434.473 203.67 431.223 201.114 428.882 197.727C426.564 194.318 425.348 190.102 425.234 185.08H439.518C439.677 187.42 440.348 189.375 441.53 190.943C442.734 192.489 444.336 193.659 446.336 194.455C448.359 195.227 450.643 195.614 453.189 195.614C455.689 195.614 457.859 195.25 459.7 194.523C461.564 193.795 463.007 192.784 464.03 191.489C465.052 190.193 465.564 188.705 465.564 187.023C465.564 185.455 465.098 184.136 464.166 183.068C463.257 182 461.916 181.091 460.143 180.341C458.393 179.591 456.246 178.909 453.7 178.295L446.098 176.386C440.211 174.955 435.564 172.716 432.155 169.67C428.746 166.625 427.052 162.523 427.075 157.364C427.052 153.136 428.177 149.443 430.45 146.284C432.746 143.125 435.893 140.659 439.893 138.886C443.893 137.114 448.439 136.227 453.53 136.227C458.711 136.227 463.234 137.114 467.098 138.886C470.984 140.659 474.007 143.125 476.166 146.284C478.325 149.443 479.439 153.102 479.507 157.261H465.359ZM513.777 208.023C508.413 208.023 503.8 206.886 499.936 204.614C496.095 202.318 493.14 199.136 491.072 195.068C489.027 191 488.004 186.318 488.004 181.023C488.004 175.659 489.038 170.955 491.106 166.909C493.197 162.841 496.163 159.67 500.004 157.398C503.845 155.102 508.413 153.955 513.709 153.955C518.277 153.955 522.277 154.784 525.709 156.443C529.14 158.102 531.856 160.432 533.856 163.432C535.856 166.432 536.959 169.955 537.163 174H523.459C523.072 171.386 522.05 169.284 520.39 167.693C518.754 166.08 516.606 165.273 513.947 165.273C511.697 165.273 509.731 165.886 508.05 167.114C506.39 168.318 505.095 170.08 504.163 172.398C503.231 174.716 502.765 177.523 502.765 180.818C502.765 184.159 503.22 187 504.129 189.341C505.061 191.682 506.368 193.466 508.05 194.693C509.731 195.92 511.697 196.534 513.947 196.534C515.606 196.534 517.095 196.193 518.413 195.511C519.754 194.83 520.856 193.841 521.72 192.545C522.606 191.227 523.186 189.648 523.459 187.807H537.163C536.936 191.807 535.845 195.33 533.89 198.375C531.959 201.398 529.288 203.761 525.879 205.466C522.47 207.17 518.436 208.023 513.777 208.023ZM546.461 207V154.636H560.541V163.773H561.086C562.041 160.523 563.643 158.068 565.893 156.409C568.143 154.727 570.734 153.886 573.666 153.886C574.393 153.886 575.177 153.932 576.018 154.023C576.859 154.114 577.598 154.239 578.234 154.398V167.284C577.552 167.08 576.609 166.898 575.405 166.739C574.2 166.58 573.098 166.5 572.098 166.5C569.961 166.5 568.052 166.966 566.371 167.898C564.711 168.807 563.393 170.08 562.416 171.716C561.461 173.352 560.984 175.239 560.984 177.375V207H546.461ZM585.743 207V154.636H600.265V207H585.743ZM593.038 147.886C590.879 147.886 589.027 147.17 587.481 145.739C585.959 144.284 585.197 142.545 585.197 140.523C585.197 138.523 585.959 136.807 587.481 135.375C589.027 133.92 590.879 133.193 593.038 133.193C595.197 133.193 597.038 133.92 598.561 135.375C600.106 136.807 600.879 138.523 600.879 140.523C600.879 142.545 600.106 144.284 598.561 145.739C597.038 147.17 595.197 147.886 593.038 147.886ZM612.172 207V137.182H626.694V163.432H627.138C627.774 162.023 628.694 160.591 629.899 159.136C631.126 157.659 632.717 156.432 634.672 155.455C636.649 154.455 639.103 153.955 642.035 153.955C645.853 153.955 649.376 154.955 652.603 156.955C655.831 158.932 658.41 161.92 660.342 165.92C662.274 169.898 663.24 174.886 663.24 180.886C663.24 186.727 662.297 191.659 660.41 195.682C658.547 199.682 656.001 202.716 652.774 204.784C649.569 206.83 645.978 207.852 642.001 207.852C639.183 207.852 636.785 207.386 634.808 206.455C632.853 205.523 631.251 204.352 630.001 202.943C628.751 201.511 627.797 200.068 627.138 198.614H626.49V207H612.172ZM626.388 180.818C626.388 183.932 626.819 186.648 627.683 188.966C628.547 191.284 629.797 193.091 631.433 194.386C633.069 195.659 635.058 196.295 637.399 196.295C639.763 196.295 641.763 195.648 643.399 194.352C645.035 193.034 646.274 191.216 647.115 188.898C647.978 186.557 648.41 183.864 648.41 180.818C648.41 177.795 647.99 175.136 647.149 172.841C646.308 170.545 645.069 168.75 643.433 167.455C641.797 166.159 639.785 165.511 637.399 165.511C635.035 165.511 633.035 166.136 631.399 167.386C629.785 168.636 628.547 170.409 627.683 172.705C626.819 175 626.388 177.705 626.388 180.818ZM673.203 207V137.182H687.726V163.432H688.169C688.805 162.023 689.726 160.591 690.93 159.136C692.157 157.659 693.748 156.432 695.703 155.455C697.68 154.455 700.135 153.955 703.067 153.955C706.885 153.955 710.407 154.955 713.635 156.955C716.862 158.932 719.442 161.92 721.373 165.92C723.305 169.898 724.271 174.886 724.271 180.886C724.271 186.727 723.328 191.659 721.442 195.682C719.578 199.682 717.032 202.716 713.805 204.784C710.601 206.83 707.01 207.852 703.032 207.852C700.214 207.852 697.817 207.386 695.839 206.455C693.885 205.523 692.282 204.352 691.032 202.943C689.782 201.511 688.828 200.068 688.169 198.614H687.521V207H673.203ZM687.419 180.818C687.419 183.932 687.851 186.648 688.714 188.966C689.578 191.284 690.828 193.091 692.464 194.386C694.101 195.659 696.089 196.295 698.43 196.295C700.794 196.295 702.794 195.648 704.43 194.352C706.067 193.034 707.305 191.216 708.146 188.898C709.01 186.557 709.442 183.864 709.442 180.818C709.442 177.795 709.021 175.136 708.18 172.841C707.339 170.545 706.101 168.75 704.464 167.455C702.828 166.159 700.817 165.511 698.43 165.511C696.067 165.511 694.067 166.136 692.43 167.386C690.817 168.636 689.578 170.409 688.714 172.705C687.851 175 687.419 177.705 687.419 180.818ZM748.484 137.182V207H733.961V137.182H748.484ZM783.981 208.023C778.595 208.023 773.959 206.932 770.072 204.75C766.209 202.545 763.231 199.432 761.14 195.409C759.05 191.364 758.004 186.58 758.004 181.057C758.004 175.67 759.05 170.943 761.14 166.875C763.231 162.807 766.175 159.636 769.97 157.364C773.788 155.091 778.265 153.955 783.402 153.955C786.856 153.955 790.072 154.511 793.05 155.625C796.05 156.716 798.663 158.364 800.89 160.568C803.14 162.773 804.89 165.545 806.14 168.886C807.39 172.205 808.015 176.091 808.015 180.545V184.534H763.8V175.534H794.345C794.345 173.443 793.89 171.591 792.981 169.977C792.072 168.364 790.811 167.102 789.197 166.193C787.606 165.261 785.754 164.795 783.64 164.795C781.436 164.795 779.481 165.307 777.777 166.33C776.095 167.33 774.777 168.682 773.822 170.386C772.868 172.068 772.379 173.943 772.356 176.011V184.568C772.356 187.159 772.834 189.398 773.788 191.284C774.765 193.17 776.14 194.625 777.913 195.648C779.686 196.67 781.788 197.182 784.22 197.182C785.834 197.182 787.311 196.955 788.652 196.5C789.993 196.045 791.14 195.364 792.095 194.455C793.05 193.545 793.777 192.432 794.277 191.114L807.709 192C807.027 195.227 805.629 198.045 803.515 200.455C801.425 202.841 798.72 204.705 795.402 206.045C792.106 207.364 788.3 208.023 783.981 208.023ZM839.984 207V137.182H854.746V194.83H884.677V207H839.984ZM909.112 207.989C905.771 207.989 902.794 207.409 900.18 206.25C897.567 205.068 895.498 203.33 893.976 201.034C892.476 198.716 891.726 195.83 891.726 192.375C891.726 189.466 892.26 187.023 893.328 185.045C894.396 183.068 895.851 181.477 897.692 180.273C899.532 179.068 901.623 178.159 903.964 177.545C906.328 176.932 908.805 176.5 911.396 176.25C914.442 175.932 916.896 175.636 918.76 175.364C920.623 175.068 921.976 174.636 922.817 174.068C923.657 173.5 924.078 172.659 924.078 171.545V171.341C924.078 169.182 923.396 167.511 922.032 166.33C920.692 165.148 918.782 164.557 916.305 164.557C913.692 164.557 911.612 165.136 910.067 166.295C908.521 167.432 907.498 168.864 906.998 170.591L893.567 169.5C894.248 166.318 895.589 163.568 897.589 161.25C899.589 158.909 902.169 157.114 905.328 155.864C908.51 154.591 912.192 153.955 916.373 153.955C919.282 153.955 922.067 154.295 924.726 154.977C927.407 155.659 929.782 156.716 931.851 158.148C933.942 159.58 935.589 161.42 936.794 163.67C937.998 165.898 938.601 168.568 938.601 171.682V207H924.828V199.739H924.419C923.578 201.375 922.453 202.818 921.044 204.068C919.635 205.295 917.942 206.261 915.964 206.966C913.987 207.648 911.703 207.989 909.112 207.989ZM913.271 197.966C915.407 197.966 917.294 197.545 918.93 196.705C920.567 195.841 921.851 194.682 922.782 193.227C923.714 191.773 924.18 190.125 924.18 188.284V182.727C923.726 183.023 923.101 183.295 922.305 183.545C921.532 183.773 920.657 183.989 919.68 184.193C918.703 184.375 917.726 184.545 916.748 184.705C915.771 184.841 914.885 184.966 914.089 185.08C912.385 185.33 910.896 185.727 909.623 186.273C908.351 186.818 907.362 187.557 906.657 188.489C905.953 189.398 905.601 190.534 905.601 191.898C905.601 193.875 906.317 195.386 907.748 196.432C909.203 197.455 911.044 197.966 913.271 197.966ZM950.14 207V137.182H964.663V163.432H965.106C965.743 162.023 966.663 160.591 967.868 159.136C969.095 157.659 970.686 156.432 972.64 155.455C974.618 154.455 977.072 153.955 980.004 153.955C983.822 153.955 987.345 154.955 990.572 156.955C993.8 158.932 996.379 161.92 998.311 165.92C1000.24 169.898 1001.21 174.886 1001.21 180.886C1001.21 186.727 1000.27 191.659 998.379 195.682C996.515 199.682 993.97 202.716 990.743 204.784C987.538 206.83 983.947 207.852 979.97 207.852C977.152 207.852 974.754 207.386 972.777 206.455C970.822 205.523 969.22 204.352 967.97 202.943C966.72 201.511 965.765 200.068 965.106 198.614H964.459V207H950.14ZM964.356 180.818C964.356 183.932 964.788 186.648 965.652 188.966C966.515 191.284 967.765 193.091 969.402 194.386C971.038 195.659 973.027 196.295 975.368 196.295C977.731 196.295 979.731 195.648 981.368 194.352C983.004 193.034 984.243 191.216 985.084 188.898C985.947 186.557 986.379 183.864 986.379 180.818C986.379 177.795 985.959 175.136 985.118 172.841C984.277 170.545 983.038 168.75 981.402 167.455C979.765 166.159 977.754 165.511 975.368 165.511C973.004 165.511 971.004 166.136 969.368 167.386C967.754 168.636 966.515 170.409 965.652 172.705C964.788 175 964.356 177.705 964.356 180.818ZM1045.42 207H1029.61L1053.71 137.182H1072.73L1096.8 207H1080.98L1063.49 153.136H1062.95L1045.42 207ZM1044.44 179.557H1081.8V191.08H1044.44V179.557ZM1104.93 226.636V154.636H1119.25V163.432H1119.9C1120.53 162.023 1121.45 160.591 1122.66 159.136C1123.88 157.659 1125.48 156.432 1127.43 155.455C1129.41 154.455 1131.86 153.955 1134.79 153.955C1138.61 153.955 1142.13 154.955 1145.36 156.955C1148.59 158.932 1151.17 161.92 1153.1 165.92C1155.03 169.898 1156 174.886 1156 180.886C1156 186.727 1155.06 191.659 1153.17 195.682C1151.31 199.682 1148.76 202.716 1145.53 204.784C1142.33 206.83 1138.74 207.852 1134.76 207.852C1131.94 207.852 1129.54 207.386 1127.57 206.455C1125.61 205.523 1124.01 204.352 1122.76 202.943C1121.51 201.511 1120.56 200.068 1119.9 198.614H1119.45V226.636H1104.93ZM1119.15 180.818C1119.15 183.932 1119.58 186.648 1120.44 188.966C1121.31 191.284 1122.56 193.091 1124.19 194.386C1125.83 195.659 1127.82 196.295 1130.16 196.295C1132.52 196.295 1134.52 195.648 1136.16 194.352C1137.79 193.034 1139.03 191.216 1139.87 188.898C1140.74 186.557 1141.17 183.864 1141.17 180.818C1141.17 177.795 1140.75 175.136 1139.91 172.841C1139.07 170.545 1137.83 168.75 1136.19 167.455C1134.56 166.159 1132.54 165.511 1130.16 165.511C1127.79 165.511 1125.79 166.136 1124.16 167.386C1122.54 168.636 1121.31 170.409 1120.44 172.705C1119.58 175 1119.15 177.705 1119.15 180.818ZM1165.68 226.636V154.636H1180V163.432H1180.65C1181.28 162.023 1182.2 160.591 1183.41 159.136C1184.63 157.659 1186.23 156.432 1188.18 155.455C1190.16 154.455 1192.61 153.955 1195.54 153.955C1199.36 153.955 1202.88 154.955 1206.11 156.955C1209.34 158.932 1211.92 161.92 1213.85 165.92C1215.78 169.898 1216.75 174.886 1216.75 180.886C1216.75 186.727 1215.81 191.659 1213.92 195.682C1212.06 199.682 1209.51 202.716 1206.28 204.784C1203.08 206.83 1199.49 207.852 1195.51 207.852C1192.69 207.852 1190.29 207.386 1188.32 206.455C1186.36 205.523 1184.76 204.352 1183.51 202.943C1182.26 201.511 1181.31 200.068 1180.65 198.614H1180.2V226.636H1165.68ZM1179.9 180.818C1179.9 183.932 1180.33 186.648 1181.19 188.966C1182.06 191.284 1183.31 193.091 1184.94 194.386C1186.58 195.659 1188.57 196.295 1190.91 196.295C1193.27 196.295 1195.27 195.648 1196.91 194.352C1198.54 193.034 1199.78 191.216 1200.62 188.898C1201.49 186.557 1201.92 183.864 1201.92 180.818C1201.92 177.795 1201.5 175.136 1200.66 172.841C1199.82 170.545 1198.58 168.75 1196.94 167.455C1195.31 166.159 1193.29 165.511 1190.91 165.511C1188.54 165.511 1186.54 166.136 1184.91 167.386C1183.29 168.636 1182.06 170.409 1181.19 172.705C1180.33 175 1179.9 177.705 1179.9 180.818Z" fill="url(#paint1_linear_9_93)"/>
<defs>
<linearGradient id="paint0_linear_9_93" x1="24.0892" y1="187.5" x2="367.478" y2="188.33" gradientUnits="userSpaceOnUse">
<stop stop-color="#B77EDA"/>
<stop offset="0.494792" stop-color="#BB5766"/>
<stop offset="1" stop-color="#BF3604"/>
</linearGradient>
<linearGradient id="paint1_linear_9_93" x1="331.678" y1="191.234" x2="1294.35" y2="198.014" gradientUnits="userSpaceOnUse">
<stop stop-color="#B77EDA"/>
<stop offset="0.494792" stop-color="#BB5766"/>
<stop offset="1" stop-color="#BF3604"/>
</linearGradient>
</defs>
</svg>
